# xmcd
#
# Track frame offsets: 
#        150
#        18539
#        33947
#        51170
#        74965
#        93803
#        128288
#        151427
#        174247
#        193986
#
# Disc length: 2750 seconds
#
# Revision: 1
# Processed by: cddbd v1.5.2PL0 Copyright (c) Steve Scherf et al.
# Submitted via: ExactAudioCopy v1.3
#
DISCID=810abc0a
DTITLE=Gitlo Lee - Comin' Out the Hole
DYEAR=2012
DGENRE=Blues
TTITLE0=Comin' Out the Hole
TTITLE1=I Love A Big Woman
TTITLE2=Ease Out
TTITLE3=Give Me A Beer
TTITLE4=Angel
TTITLE5=Swamp Devil
TTITLE6=Joe Brown
TTITLE7=Coffee
TTITLE8=That Old Man
TTITLE9=Ain't Studdin' You Baby
EXTD=
EXTT0=
EXTT1=
EXTT2=
EXTT3=
EXTT4=
EXTT5=
EXTT6=
EXTT7=
EXTT8=
EXTT9=
PLAYORDER=
